<?xml version="1.0" encoding="UTF-8"?>
<svg width="115px" height="120px" viewBox="0 0 115 120" version="1.1" xmlns="http://www.w3.org/2000/svg" xmlns:xlink="http://www.w3.org/1999/xlink">
    <title>Group</title>
    <defs>
        <linearGradient x1="49.8418278%" y1="0%" x2="49.8418278%" y2="100%" id="linearGradient-1">
            <stop stop-color="#FEF7EB" offset="0%"></stop>
            <stop stop-color="#FFFAEF" offset="100%"></stop>
        </linearGradient>
    </defs>
    <g id="Page-1" stroke="none" stroke-width="1" fill="none" fill-rule="evenodd">
        <g id="Group" transform="translate(-22, -19)">
            <path d="M121.3,138.6 L36.7,138.6 C29,138.6 22.3,132.3 22.3,124.5 L22.3,34 C22.3,26.7 28.6,19.7 36.7,19.7 L121.6,19.7 C129,19.7 136.1,25.9 136.1,34 L136.1,124.5 C136.1,132.3 129.8,138.6 121.3,138.6 L121.3,138.6 Z" id="Path" fill="url(#linearGradient-1)"></path>
            <path d="M105,110.6 L91.4,102.7 C100.5,100.3 106.2,94.9 106,83.6 C105.9,79 103.9,66 97.6,59.9 L94.6,57.2 C100.6,48.9 103.2,37.9 100.7,32.6 C99.4,29.8 96.5,29 93.3,30.6 C88.2,32.9 83.2,40.7 80.6,52.2 C79,52.1 77,52.2 75,52.5 C73.8,40 70,31.8 65.6,27.9 C61.1,23.9 57.3,24.3 55.7,29.1 C53.9,34.9 55.8,45.9 64,57.5 C58.6,61.3 54.9,67.1 54.9,75.4 C54.5,78.1 53.6,82.9 53.4,85.1 C53.1,92.9 56.6,99.6 62.4,102.7 C62.1,101 61.8,99.1 61.7,97.4 C63.6,99.8 65.3,101.3 67.1,102.3 L53,110.6 C52.1,111.1 51,112.3 51,113.8 L51,115.8 C51,116.6 51.5,118 52.5,118.5 L77.2,131.9 C78.5,132.7 79.9,132.7 81.1,132 L105.3,118.7 C106.5,118.2 106.9,117.3 106.9,116.2 L106.9,113.8 C106.9,112.3 105.8,111 105,110.6 L105,110.6 Z" id="Path" fill="#D62134"></path>
            <path d="M61.4,115.3 C62.8,111.9 64.4,108.5 66.2,105.6 L70,103.3 L71,103.3 C69.1,106.6 67.8,110 66.5,114.4 C66.3,115.3 67.3,116.2 68.1,115.8 L73.8,112.4 L77.9,119.9 C78.1,120.5 79.1,120.6 79.5,120.3 C81.8,118.3 89,111.6 92,105.3 L102.8,111.8 L79,125.2 L61.4,115.3 L61.4,115.3 Z" id="Path" fill="#FFF8EE"></path>
            <path d="M89.3,119.4 L102.8,112 L102.7,111.9 L92,105.3 C89.1,110.3 83,116.2 79,119.9 L79,125.2 L89.3,119.7 L89.3,119.4 Z" id="Path" fill="#FDCEB3"></path>
            <path d="M79,117.9 L75.9,111.9 C82,111.5 86.1,109 88.8,106.5 C86.7,110.1 82,114.9 79,117.9 L79,117.9 Z" id="Path" fill="#FFFFFF"></path>
            <path d="M71.8,53.6 L73,53 C71.4,38.2 65.6,29 60.9,27.5 C55.5,26.7 55.9,39.2 60.2,47.4 L65.7,56.3 L67.2,55.3 C60.1,46.5 57.6,31.1 61.5,31.4 C63.8,31.8 68.8,38.4 71,53.5 L71.8,53.6 L71.8,53.6 Z" id="Path" fill="#FFF8EE"></path>
            <path d="M73,53 C71.4,38.7 66.4,29.4 60.9,27.5 L61.8,31.3 C64.1,32.5 68.7,37.9 71,53.7 L73,53 Z" id="Path" fill="#FDCEB3"></path>
            <path d="M88.3,61.5 C95.1,55.4 99.9,45.1 99.7,37 C99.5,33.8 98.5,32.4 97.7,31.9 L96,35.6 C98.8,36.6 96.8,48.6 86.7,59.6 L88.3,61.5 Z" id="Path" fill="#FDCEB3"></path>
            <path d="M81.8,56.9 C84.7,43.1 89.4,34.5 95.3,32.1 C96.9,31.6 97.9,31.9 98.5,32.6 L96.2,35.6 C93.3,34.6 86.6,41.9 83.6,57.6 L87.4,60.4 L88.4,62 C94,67 96.5,74.9 96.4,82.3 L94.8,81.6 C94.4,70.4 84.6,56.8 70,56.5 C72.9,55.4 77,54.9 81.8,56.9 L81.8,56.9 Z" id="Path" fill="#FFF8EE"></path>
            <path d="M65.2,65.9 C65.5,63.9 69,59.8 72.4,58.7 C70,58.4 65.2,58.3 62,61.8 C58,66 57.2,69.9 57,72.7 C58,69.4 61.5,65.6 65.2,65.9 Z" id="Path" fill="#FDCEB3"></path>
            <path d="M73.8,103.1 L73.8,106.6 L74.4,109.5 C79.7,109.6 85.4,106.7 88.6,103.6 L86.9,103 C89.4,101.7 91.7,97 92,94.6 L90.6,95 C89.4,100 84.6,105 80.8,106.2 C82,103.7 82.4,102 83.1,99.4 C79.5,101.5 76.5,102.6 73.8,103.1 L73.8,103.1 Z" id="Path" fill="#FFF8EE"></path>
            <path d="M87,103.1 L88.6,103.6 C86,105.7 82.1,108.1 79,109 L79,104.1 C77.6,104.7 76,105.2 73.9,105.4 L73.9,103.1 C76.5,102.7 79.6,101.7 83.1,99.4 C82.8,101.5 81.9,103.6 80.8,106.2 C85.8,104.5 89.7,100.3 90.5,95 L92.1,94.6 C91.8,97 90.1,101.2 87,103.1 L87,103.1 Z" id="Path" fill="#FDCEB3"></path>
            <path d="M76,81.9 L74.2,82 L73.8,82.2 C74,82 73.9,81.5 73.8,81.3 C68.4,80.8 67.4,79.9 67.1,79.7 C65.5,78 63.8,74 64.1,71.6 C62.9,72.9 61.7,75 61.3,75.6 C63.9,75.9 65.5,78 65.5,79 C65.6,79.7 65.1,79.4 65,79.2 C63.4,77.6 61.1,77.1 60.2,77.4 C59.7,78.7 59.6,79.2 60,79.9 C63.3,78.1 66.3,81.9 66.3,84.1 C66.3,84.5 66,84.6 65.6,84.2 C65.5,85.6 65,86.6 63.9,86.6 C62.8,86.6 61.3,84.6 61.7,81.4 L60.2,81.6 L60,85.9 C59.6,91 61.8,95 65.1,98.3 C66.5,99.6 68.3,101.2 71.1,101.2 C74.5,101.2 79.7,99.8 83.7,96.6 C84.2,92.9 84.5,87.9 84.2,84.1 C82.7,83.9 80.6,82.6 79.4,82 L76,81.9 L76,81.9 Z" id="Path" fill="#FFF8EE"></path>
            <path d="M84.2,84.1 C82.9,83.9 81.5,83.3 80.1,82.4 L79.4,82.9 C83,91.6 78,99.1 71.5,101.2 C74.4,101.2 79.9,99.8 83.6,96.6 C84.2,92.4 84.4,87 84.2,84.1 L84.2,84.1 Z" id="Path" fill="#FDCEB3"></path>
            <path d="M56.4,79 C55.4,84.6 55.1,90 57.4,94.6 C56,89.6 57.6,82.7 57.9,81.1 L56.4,79 Z" id="Path" fill="#FFF8EE"></path>
            <polygon id="Path" fill="#F5A487" points="61.1 75.7 62.4 75.9 64.1 74.6 63.9 71.9 61.1 75.7"></polygon>
            <polygon id="Path" fill="#FDCEB3" points="60.1 77.4 59.7 78.7 60.1 79.6 63 77.6"></polygon>
            <path d="M92.1,84.1 L92.1,85.6 C92.1,87.6 91.6,91.4 91.2,92.9 C94,92.6 96.9,90.4 96.8,86.4 C96.6,84 94,82.7 92.1,84.1 L92.1,84.1 Z" id="Path" fill="#FFF8EE"></path>
            <path d="M96.4,85.5 C96,87.1 94,88.7 91.8,89 L91.6,92.9 C95.4,92 97.1,88.6 96.4,85.5 Z" id="Path" fill="#FDCEB3"></path>
            <path d="M96.4,82.3 C96.6,74.4 94,67.4 88.6,62 C89.6,63.9 90.1,66.7 90.4,68.9 C92.9,73 94.8,78 94.8,81.6 L96.4,82.3 L96.4,82.3 Z" id="Path" fill="#FDCEB3"></path>
            <path d="M73.3,73.6 C73,76.4 73.3,79.1 74,82 L74.2,81.1 C74.6,80.4 76,79.6 76.9,79.9 C74.6,77.6 73.7,75.4 73.4,73.6 L73.3,73.6 L73.3,73.6 Z" id="Path" fill="#FFFFFF"></path>
            <path d="M79.9,68.9 C80.1,71.5 81.6,76.6 84,79.6 C83.4,75 82.4,71.5 79.7,68.9 L79.9,68.9 Z" id="Path" fill="#FDCEB3"></path>
            <polygon id="Path" fill="#FFFFFF" points="70 112.1 72.7 110 71.8 106.7 69.5 112.1 70 112.1"></polygon>
            <path d="M89.3,119.4 C91.2,114.6 96.6,110.9 101.2,110.9 L102.7,111.9 L89.3,119.4 Z" id="Path" fill="#F5A487"></path>
            <path d="M68,90.2 C66.5,90 65.5,89.4 65.7,91 C66.4,92.4 67.2,93.1 68.1,92.6 C69.9,91.9 70.6,90.4 68,90.2 L68,90.2 Z" id="Path" fill="#D62134"></path>
            <path d="M71.4,95.1 C69.9,95.6 67.1,95.1 65.6,94 C64.6,93.3 64.1,94.6 65.6,95.7 C67.4,97 70.6,97.4 72.1,96.4 C73.1,95.7 72.4,94.9 71.4,95.1 L71.4,95.1 Z" id="Path" fill="#D62134"></path>
            <path d="M73,86 C72.8,86.9 73.4,86.6 73.6,86.4 C74.5,86 75.2,85.9 75.7,85.6 C74.9,87.7 76.1,90.4 78.6,90.4 C79.7,90.4 80.6,89.5 80.6,87.7 L81.4,88.1 C83,87.6 83.4,86.9 82.4,86.1 C78.9,82.7 74.4,83 73,86 L73,86 Z" id="Path" fill="#D62134"></path>
        </g>
    </g>
</svg>